<?xml version="1.0" encoding="UTF-8"?>
<!DOCTYPE svg PUBLIC "-//W3C//DTD SVG 1.1//EN" "http://www.w3.org/Graphics/SVG/1.1/DTD/svg11.dtd">
<svg xmlns="http://www.w3.org/2000/svg" version="1.1" width="400px" height="33px" style="shape-rendering:geometricPrecision; text-rendering:geometricPrecision; image-rendering:optimizeQuality; fill-rule:evenodd; clip-rule:evenodd" xmlns:xlink="http://www.w3.org/1999/xlink">
<g><path style="opacity:0.694" fill="#ef7e1a" d="M 0.5,1.5 C 10.9377,1.04876 21.271,1.54876 31.5,3C 33.0284,4.64772 33.6951,6.64772 33.5,9C 33.6951,11.3523 33.0284,13.3523 31.5,15C 32.4162,15.3742 33.2496,15.8742 34,16.5C 34.6667,20.1667 34.6667,23.8333 34,27.5C 33.0975,28.7014 31.9308,29.5348 30.5,30C 20.5056,30.4998 10.5056,30.6665 0.5,30.5C 0.5,20.8333 0.5,11.1667 0.5,1.5 Z M 6.5,6.5 C 13.5316,6.16967 20.5316,6.503 27.5,7.5C 28.7219,9.90862 28.0553,11.742 25.5,13C 19.1754,13.4995 12.8421,13.6662 6.5,13.5C 6.5,11.1667 6.5,8.83333 6.5,6.5 Z M 6.5,18.5 C 13.8635,18.1694 21.1968,18.5027 28.5,19.5C 29.8333,21.1667 29.8333,22.8333 28.5,24.5C 21.1968,25.4973 13.8635,25.8306 6.5,25.5C 6.5,23.1667 6.5,20.8333 6.5,18.5 Z"/></g>
<g><path style="opacity:0.644" fill="#ee7e1a" d="M 71.5,3.5 C 66.202,8.29689 61.0354,13.2969 56,18.5C 55.5012,22.4862 55.3345,26.4862 55.5,30.5C 53.5,30.5 51.5,30.5 49.5,30.5C 49.6655,26.4862 49.4988,22.4862 49,18.5C 43.6516,13.3187 38.485,7.98534 33.5,2.5C 35.7649,1.35258 38.0982,1.18591 40.5,2C 44.3484,6.01556 48.3484,9.84889 52.5,13.5C 56.6516,9.84889 60.6516,6.01556 64.5,2C 65.6667,1.83333 66.8333,1.66667 68,1.5C 69.6811,1.60826 70.8478,2.27493 71.5,3.5 Z"/></g>
<g><path style="opacity:0.713" fill="#ee7e19" d="M 71.5,3.5 C 76.5882,2.21771 81.9215,1.55104 87.5,1.5C 93.2727,1.37853 98.9394,1.87853 104.5,3C 107.868,6.44029 109.201,10.607 108.5,15.5C 108.747,19.7413 107.913,23.7413 106,27.5C 105.097,28.7014 103.931,29.5348 102.5,30C 92.5,30.6667 82.5,30.6667 72.5,30C 71.5161,21.2511 71.1828,12.4178 71.5,3.5 Z M 77.5,6.5 C 85.1739,6.33365 92.8406,6.50031 100.5,7C 102.027,9.7574 102.693,12.7574 102.5,16C 102.693,19.2426 102.027,22.2426 100.5,25C 92.8406,25.4997 85.1739,25.6664 77.5,25.5C 77.5,19.1667 77.5,12.8333 77.5,6.5 Z"/></g>
<g><path style="opacity:0.654" fill="#ef7f1a" d="M 110.5,1.5 C 120.167,1.5 129.833,1.5 139.5,1.5C 139.5,3.16667 139.5,4.83333 139.5,6.5C 131.833,6.5 124.167,6.5 116.5,6.5C 116.5,8.5 116.5,10.5 116.5,12.5C 123.833,12.5 131.167,12.5 138.5,12.5C 138.5,14.5 138.5,16.5 138.5,18.5C 131.167,18.5 123.833,18.5 116.5,18.5C 116.5,20.8333 116.5,23.1667 116.5,25.5C 124.167,25.5 131.833,25.5 139.5,25.5C 139.5,27.1667 139.5,28.8333 139.5,30.5C 129.833,30.5 120.167,30.5 110.5,30.5C 110.5,20.8333 110.5,11.1667 110.5,1.5 Z"/></g>
<g><path style="opacity:0.675" fill="#ee7e19" d="M 146.5,1.5 C 153.508,1.33371 160.508,1.50038 167.5,2C 171.136,4.039 172.802,7.20566 172.5,11.5C 170.5,11.5 168.5,11.5 166.5,11.5C 166.714,9.85613 166.38,8.35613 165.5,7C 159.5,6.33333 153.5,6.33333 147.5,7C 144.674,9.52185 145.007,11.5219 148.5,13C 155.939,13.0699 163.272,13.7365 170.5,15C 173.555,18.8409 174.055,23.0076 172,27.5C 170.581,28.4601 169.081,29.2935 167.5,30C 159.833,30.6667 152.167,30.6667 144.5,30C 143.069,29.5348 141.903,28.7014 141,27.5C 140.503,25.1902 140.337,22.8568 140.5,20.5C 142.167,20.5 143.833,20.5 145.5,20.5C 145.286,22.1439 145.62,23.6439 146.5,25C 153.167,25.6667 159.833,25.6667 166.5,25C 167.833,23 167.833,21 166.5,19C 158.729,18.9336 151.062,18.2669 143.5,17C 140.572,13.7428 139.738,9.90944 141,5.5C 142.5,3.5313 144.333,2.19796 146.5,1.5 Z"/></g>
<g><path style="opacity:0.741" fill="#ee7f1a" d="M 174.5,1.5 C 176.5,1.5 178.5,1.5 180.5,1.5C 180.5,11.1667 180.5,20.8333 180.5,30.5C 178.5,30.5 176.5,30.5 174.5,30.5C 174.5,20.8333 174.5,11.1667 174.5,1.5 Z"/></g>
<g><path style="opacity:0.675" fill="#ee7e1a" d="M 188.5,1.5 C 196.84,1.3336 205.173,1.50027 213.5,2C 217.39,3.94493 219.057,7.11159 218.5,11.5C 216.5,11.5 214.5,11.5 212.5,11.5C 212.714,9.85613 212.38,8.35613 211.5,7C 204.5,6.33333 197.5,6.33333 190.5,7C 190,7.5 189.5,8 189,8.5C 188.333,13.5 188.333,18.5 189,23.5C 189.5,24 190,24.5 190.5,25C 197.5,25.6667 204.5,25.6667 211.5,25C 212.293,23.9148 212.96,22.7481 213.5,21.5C 208.868,20.6717 204.202,20.1717 199.5,20C 198.594,18.3005 198.261,16.4672 198.5,14.5C 205.167,14.5 211.833,14.5 218.5,14.5C 218.666,18.5138 218.499,22.5138 218,26.5C 216.786,28.0488 215.286,29.2155 213.5,30C 204.091,30.9168 194.758,30.5835 185.5,29C 181.925,21.0076 181.592,12.841 184.5,4.5C 185.901,3.47934 187.235,2.47934 188.5,1.5 Z"/></g>
<g><path style="opacity:0.69" fill="#ee7e19" d="M 220.5,1.5 C 223.518,1.33537 226.518,1.50204 229.5,2C 237,9.5 244.5,17 252,24.5C 252.5,16.8406 252.666,9.1739 252.5,1.5C 254.167,1.5 255.833,1.5 257.5,1.5C 257.5,11.1667 257.5,20.8333 257.5,30.5C 254.813,30.6641 252.146,30.4974 249.5,30C 242,22.5 234.5,15 227,7.5C 226.5,15.1594 226.334,22.8261 226.5,30.5C 224.5,30.5 222.5,30.5 220.5,30.5C 220.5,20.8333 220.5,11.1667 220.5,1.5 Z"/></g>
</svg>
