<?xml version="1.0" encoding="UTF-8"?>
<!DOCTYPE svg PUBLIC "-//W3C//DTD SVG 1.1//EN" "http://www.w3.org/Graphics/SVG/1.1/DTD/svg11.dtd">
<svg xmlns="http://www.w3.org/2000/svg" version="1.1" width="1496px" height="625px" style="shape-rendering:geometricPrecision; text-rendering:geometricPrecision; image-rendering:optimizeQuality; fill-rule:evenodd; clip-rule:evenodd" xmlns:xlink="http://www.w3.org/1999/xlink">
<g><path style="opacity:0.98" fill="#ea4523" d="M 194.5,53.5 C 214.542,51.1167 230.709,57.7834 243,73.5C 256.7,97.8005 253.533,119.634 233.5,139C 213.511,152.997 193.511,152.997 173.5,139C 154.63,120.98 150.797,100.147 162,76.5C 169.827,64.51 180.66,56.8433 194.5,53.5 Z"/></g>
<g><path style="opacity:0.986" fill="#ea4523" d="M 194.5,160.5 C 222.07,157.936 239.237,169.936 246,196.5C 246.667,265.833 246.667,335.167 246,404.5C 238.385,431.773 220.552,443.273 192.5,439C 174.923,433.424 164.423,421.591 161,403.5C 160.333,334.5 160.333,265.5 161,196.5C 164.796,177.54 175.963,165.54 194.5,160.5 Z"/></g>
<g><path style="opacity:0.981" fill="#7a7a7b" d="M 82.5,161.5 C 109.64,158.977 128.14,170.31 138,195.5C 143.605,221.451 134.771,240.618 111.5,253C 82.2898,262.468 60.7898,253.634 47,226.5C 39.8578,203.891 45.3578,185.058 63.5,170C 69.4528,166.081 75.7862,163.248 82.5,161.5 Z"/></g>
<g><path style="opacity:0.981" fill="#7a7a7b" d="M 305.5,161.5 C 330.971,158.645 349.138,168.645 360,191.5C 367.467,215.766 360.967,235.266 340.5,250C 316.402,261.911 295.235,258.078 277,238.5C 265.146,220.292 264.479,201.625 275,182.5C 282.642,171.668 292.809,164.668 305.5,161.5 Z"/></g>
<g><path style="opacity:0.968" fill="#7a7a7b" d="M 663.5,265.5 C 685.488,264.581 706.655,268.248 727,276.5C 727.021,287.628 725.854,298.628 723.5,309.5C 707.416,301.562 690.416,297.229 672.5,296.5C 664.741,296.018 657.407,297.518 650.5,301C 641.536,309.34 641.203,318.007 649.5,327C 653.007,329.254 656.673,331.254 660.5,333C 678.049,338.275 695.049,344.941 711.5,353C 730.754,365.404 737.92,382.904 733,405.5C 729.226,420.937 720.06,431.77 705.5,438C 677.679,445.765 650.012,445.099 622.5,436C 618.048,434.748 614.048,432.748 610.5,430C 611.695,419.063 613.362,408.23 615.5,397.5C 632.655,406.275 650.822,411.275 670,412.5C 679.601,413.521 687.935,410.855 695,404.5C 701.506,389.001 696.672,378.501 680.5,373C 664.494,367.497 648.827,361.163 633.5,354C 612.205,340.034 605.705,320.868 614,296.5C 619.229,284.272 628.062,275.772 640.5,271C 648.135,268.445 655.802,266.612 663.5,265.5 Z"/></g>
<g><path style="opacity:0.986" fill="#7a7a7b" d="M 83.5,269.5 C 109.672,267.199 126.505,278.532 134,303.5C 134.974,339.214 134.64,374.88 133,410.5C 125.769,429.556 111.936,439.556 91.5,440.5C 66.8065,438.305 52.6398,424.972 49,400.5C 48.3333,369.833 48.3333,339.167 49,308.5C 52.2549,288.085 63.7549,275.085 83.5,269.5 Z"/></g>
<g><path style="opacity:0.984" fill="#7a7a7b" d="M 306.5,269.5 C 334.963,267.156 352.129,279.823 358,307.5C 358.667,338.833 358.667,370.167 358,401.5C 353.898,425.434 339.732,438.434 315.5,440.5C 292.814,439.085 278.647,427.419 273,405.5C 272.333,371.5 272.333,337.5 273,303.5C 277.682,285.652 288.849,274.319 306.5,269.5 Z"/></g>
<g><path style="opacity:0.978" fill="#7a7a7b" d="M 446.5,269.5 C 457.167,269.5 467.833,269.5 478.5,269.5C 478.333,304.168 478.5,338.835 479,373.5C 480.986,404.086 497.153,416.92 527.5,412C 540.89,408.944 549.39,400.777 553,387.5C 554.812,379.945 555.812,372.278 556,364.5C 556.5,332.835 556.667,301.168 556.5,269.5C 567.167,269.5 577.833,269.5 588.5,269.5C 588.667,304.835 588.5,340.168 588,375.5C 587.314,400.712 576.814,420.546 556.5,435C 544.095,441.281 530.928,444.115 517,443.5C 475.511,443.344 452.177,422.678 447,381.5C 446.5,344.168 446.333,306.835 446.5,269.5 Z"/></g>
<g><path style="opacity:0.987" fill="#7a7a7b" d="M 754.5,269.5 C 791.167,269.5 827.833,269.5 864.5,269.5C 864.5,279.833 864.5,290.167 864.5,300.5C 838.5,300.5 812.5,300.5 786.5,300.5C 786.5,312.167 786.5,323.833 786.5,335.5C 806.5,335.5 826.5,335.5 846.5,335.5C 846.5,345.833 846.5,356.167 846.5,366.5C 826.5,366.5 806.5,366.5 786.5,366.5C 786.5,380.833 786.5,395.167 786.5,409.5C 813.167,409.5 839.833,409.5 866.5,409.5C 866.5,419.833 866.5,430.167 866.5,440.5C 829.167,440.5 791.833,440.5 754.5,440.5C 754.5,383.5 754.5,326.5 754.5,269.5 Z"/></g>
<g><path style="opacity:0.975" fill="#7a7a7b" d="M 887.5,269.5 C 913.169,269.333 938.835,269.5 964.5,270C 1000.29,277.364 1014.79,299.197 1008,335.5C 1004,350.836 994.838,362.003 980.5,369C 993.849,392.533 1006.52,416.367 1018.5,440.5C 1006.48,440.832 994.482,440.499 982.5,439.5C 971.961,418.921 961.294,398.421 950.5,378C 940.172,377.5 929.839,377.334 919.5,377.5C 919.5,398.5 919.5,419.5 919.5,440.5C 908.833,440.5 898.167,440.5 887.5,440.5C 887.5,383.5 887.5,326.5 887.5,269.5 Z M 919.5,296.5 C 931.171,296.333 942.838,296.5 954.5,297C 971.045,301.571 977.879,312.404 975,329.5C 970.457,343.681 960.623,350.514 945.5,350C 936.84,350.5 928.173,350.666 919.5,350.5C 919.5,332.5 919.5,314.5 919.5,296.5 Z"/></g>
<g><path style="opacity:0.957" fill="#7a7a7b" d="M 1030.5,320.5 C 1056.5,320.5 1082.5,320.5 1108.5,320.5C 1108.5,327.833 1108.5,335.167 1108.5,342.5C 1090.5,342.5 1072.5,342.5 1054.5,342.5C 1054.5,350.5 1054.5,358.5 1054.5,366.5C 1068.5,366.5 1082.5,366.5 1096.5,366.5C 1096.5,373.833 1096.5,381.167 1096.5,388.5C 1082.5,388.5 1068.5,388.5 1054.5,388.5C 1054.5,398.5 1054.5,408.5 1054.5,418.5C 1072.83,418.5 1091.17,418.5 1109.5,418.5C 1109.5,425.833 1109.5,433.167 1109.5,440.5C 1083.17,440.5 1056.83,440.5 1030.5,440.5C 1030.5,400.5 1030.5,360.5 1030.5,320.5 Z"/></g>
<g><path style="opacity:0.957" fill="#7a7a7b" d="M 1160.5,320.5 C 1168.09,320.186 1175.59,320.519 1183,321.5C 1197.34,361.014 1211.17,400.681 1224.5,440.5C 1217.14,440.831 1209.8,440.497 1202.5,439.5C 1199.2,430.573 1196.2,421.573 1193.5,412.5C 1179.16,412.333 1164.83,412.5 1150.5,413C 1146.97,421.923 1143.64,430.923 1140.5,440C 1133.17,440.5 1125.84,440.666 1118.5,440.5C 1132.3,400.436 1146.3,360.436 1160.5,320.5 Z M 1171.5,352.5 C 1176.69,365.564 1181.35,378.898 1185.5,392.5C 1176.14,392.832 1166.81,392.498 1157.5,391.5C 1162.18,378.472 1166.84,365.472 1171.5,352.5 Z"/></g>
<g><path style="opacity:0.961" fill="#7a7a7b" d="M 1237.5,320.5 C 1256.5,320.333 1275.5,320.5 1294.5,321C 1325.91,328.253 1341.57,348.086 1341.5,380.5C 1341.18,414.649 1324.18,434.482 1290.5,440C 1272.84,440.5 1255.17,440.667 1237.5,440.5C 1237.5,400.5 1237.5,360.5 1237.5,320.5 Z M 1260.5,340.5 C 1307.17,335.673 1324.67,356.006 1313,401.5C 1308.83,411.002 1301.66,416.836 1291.5,419C 1281.17,419.5 1270.84,419.666 1260.5,419.5C 1260.5,393.167 1260.5,366.833 1260.5,340.5 Z"/></g>
<g><path style="opacity:0.953" fill="#7a7a7b" d="M 1333.5,321.5 C 1342.01,320.179 1350.68,320.179 1359.5,321.5C 1368.67,337.833 1377.83,354.167 1387,370.5C 1396.12,353.755 1405.62,337.255 1415.5,321C 1423.83,320.333 1432.17,320.333 1440.5,321C 1426.54,344.418 1412.71,367.918 1399,391.5C 1398.5,407.83 1398.33,424.163 1398.5,440.5C 1390.83,440.5 1383.17,440.5 1375.5,440.5C 1375.67,423.83 1375.5,407.163 1375,390.5C 1361.14,367.437 1347.31,344.437 1333.5,321.5 Z"/></g>
</svg>
